<svg xmlns="http://www.w3.org/2000/svg" width="18.858" height="17.047" viewBox="0 0 18.858 17.047">
  <g id="image-combiner-svgrepo-com" transform="translate(-3.998 -5.977)">
    <path id="Path_253" data-name="Path 253" d="M15.945,12.368a.62.62,0,0,1,.707.574h0L17.8,23.853a.62.62,0,0,1-.574.707L6.36,25.708a.62.62,0,0,1-.707-.574h0L4.5,14.268a.62.62,0,0,1,.574-.707l10.866-1.193Z" transform="translate(0 -3.191)" fill="none" stroke="#16425b" stroke-linecap="round" stroke-linejoin="round" stroke-width="1"/>
    <path id="Path_254" data-name="Path 254" d="M11.053,18.924a1.488,1.488,0,1,0,1.634,1.325,1.49,1.49,0,0,0-1.634-1.325Zm4.02,2.562-2.12,2.606a.218.218,0,0,1-.309.044h0l-.486-.4a.213.213,0,0,0-.309.044l-2.3,2.827a.187.187,0,0,0,.044.309c-.044.044.044.044.088.044l9.144-.972a.247.247,0,0,0,.221-.265c0-.044-.044-.088-.044-.132l-3.578-4.152a.333.333,0,0,0-.353.044h0Z" transform="translate(-2.705 -6.743)" fill="none" stroke="#16425b" stroke-linecap="round" stroke-linejoin="round" stroke-width="1"/>
    <path id="Path_255" data-name="Path 255" d="M16.281,9.84l.309-2.783a.643.643,0,0,1,.707-.574L28.164,7.631a.643.643,0,0,1,.574.707h0L27.59,19.2a.682.682,0,0,1-.707.574l-2.827-.309" transform="translate(-6.388 0)" fill="none" stroke="#16425b" stroke-linecap="round" stroke-linejoin="round" stroke-width="1"/>
    <path id="Path_256" data-name="Path 256" d="M32.2,24l2.429.265a.28.28,0,0,0,.265-.221.162.162,0,0,0-.044-.132L32.2,19.1a.273.273,0,0,0-.309-.088h0l-.177.177" transform="translate(-14.757 -6.786)" fill="none" stroke="#16425b" stroke-linecap="round" stroke-linejoin="round" stroke-width="1"/>
  </g>
</svg>
