<svg xmlns="http://www.w3.org/2000/svg" width="39.999" height="39.999" viewBox="0 0 39.999 39.999">
  <g id="help-svgrepo-com" transform="translate(-2 -2)">
    <path id="Path_220" data-name="Path 220" d="M20.666,39.332A18.666,18.666,0,1,0,2,20.666,18.666,18.666,0,0,0,20.666,39.332Zm0-11.2A7.466,7.466,0,1,0,13.2,20.666,7.467,7.467,0,0,0,20.666,28.132Z" transform="translate(2.667 2.667)" fill="#c5c5c5" fill-rule="evenodd" opacity="0.25"/>
    <path id="Path_204" data-name="Path 204" d="M20.666,39.332A18.666,18.666,0,1,0,2,20.666,18.666,18.666,0,0,0,20.666,39.332Zm0-11.2A7.466,7.466,0,1,0,13.2,20.666,7.467,7.467,0,0,0,20.666,28.132Z" transform="translate(0 0)" fill="#d1d1d1" fill-rule="evenodd"/>
    <path id="Path_205" data-name="Path 205" d="M6.4,24.2l7.976-7.976a7.506,7.506,0,0,1-1.98-1.98L4.418,22.224A18.8,18.8,0,0,0,6.4,24.2Z" transform="translate(2.096 10.615)" fill="#fff"/>
    <path id="Path_206" data-name="Path 206" d="M4.418,6.4l7.976,7.976a7.507,7.507,0,0,1,1.98-1.98L6.4,4.418A18.781,18.781,0,0,0,4.418,6.4Z" transform="translate(2.095 2.096)" fill="#fff"/>
    <path id="Path_207" data-name="Path 207" d="M14.248,12.394l7.975-7.975A18.779,18.779,0,0,1,24.2,6.4l-7.976,7.976A7.506,7.506,0,0,0,14.248,12.394Z" transform="translate(10.614 2.096)" fill="#fff"/>
    <path id="Path_208" data-name="Path 208" d="M24.2,22.224l-7.976-7.975a7.5,7.5,0,0,1-1.98,1.98L22.223,24.2A18.812,18.812,0,0,0,24.2,22.224Z" transform="translate(10.614 10.614)" fill="#fff"/>
  </g>
</svg>
