<svg id="Group_20" data-name="Group 20" xmlns="http://www.w3.org/2000/svg" width="13.428" height="14.648" viewBox="0 0 13.428 14.648">
  <path id="Path_218" data-name="Path 218" d="M294.386,308.043c0,.569-.016,12.987-.016,12.987,0,.6.8,1,1.2.6l1.017-.8,1,.8a.907.907,0,0,0,1,0l1-1,1,1a.907.907,0,0,0,1,0l1-1,1,1a.907.907,0,0,0,1,0l1-1,1,1a.713.713,0,0,0,1.2-.6V308.043c0-.573-.245-.856-.884-.856l-11.674,0C294.6,307.184,294.386,307.474,294.386,308.043Z" transform="translate(-294.37 -307.184)" fill="#16425b"/>
  <path id="Path_219" data-name="Path 219" d="M371.2,390.8a.432.432,0,0,1,.4-.4h6.821a.4.4,0,0,1,0,.8H371.4C371.2,391.2,371.2,391,371.2,390.8Zm0,2.207a.432.432,0,0,1,.4-.4h5.216a.4.4,0,1,1,0,.8H371.4C371.2,393.409,371.2,393.209,371.2,393.008Zm0,2.408a.432.432,0,0,1,.4-.4h8.226a.4.4,0,1,1,0,.8H371.4C371.2,395.817,371.2,395.616,371.2,395.416Zm0,2.207a.432.432,0,0,1,.4-.4h6.821a.4.4,0,0,1,0,.8H371.4C371.2,398.024,371.2,397.823,371.2,397.623Z" transform="translate(-368.777 -387.79)" fill="#fff"/>
</svg>
