<svg xmlns="http://www.w3.org/2000/svg" width="16.146" height="17.613" viewBox="0 0 16.146 17.613">
  <g id="Group_20" data-name="Group 20" transform="translate(-269.97 -133.984)">
    <path id="Path_218" data-name="Path 218" d="M294.389,308.216c0,.684-.019,15.616-.019,15.616,0,.724.963,1.206,1.444.724l1.222-.965,1.2.965a1.091,1.091,0,0,0,1.2,0l1.2-1.206,1.2,1.206a1.091,1.091,0,0,0,1.2,0l1.2-1.206,1.2,1.206a1.091,1.091,0,0,0,1.2,0l1.2-1.206,1.2,1.206a.857.857,0,0,0,1.444-.724V308.216c0-.689-.295-1.029-1.063-1.029l-14.037,0C294.642,307.184,294.389,307.532,294.389,308.216Z" transform="translate(-24.4 -173.2)" fill="#16425b"/>
    <path id="Path_219" data-name="Path 219" d="M371.2,390.883a.519.519,0,0,1,.482-.482h8.2a.482.482,0,0,1,0,.965h-8.443C371.2,391.365,371.2,391.124,371.2,390.883Zm0,2.654a.519.519,0,0,1,.482-.482h6.272a.482.482,0,1,1,0,.965h-6.513C371.2,394.018,371.2,393.777,371.2,393.536Zm0,2.895a.519.519,0,0,1,.482-.482h9.891a.482.482,0,0,1,0,.965H371.441C371.2,396.913,371.2,396.672,371.2,396.431Zm0,2.654a.519.519,0,0,1,.482-.482h8.2a.483.483,0,0,1,0,.965h-8.443C371.2,399.567,371.2,399.326,371.2,399.084Z" transform="translate(-98.316 -253.277)" fill="#fff"/>
  </g>
</svg>
